{"title":"Aa Gaye Munde U.K. De (2014) 720p Web-HD-Rip - Punjabi - x264 -","uid":11337344,"size":1131123110,"categoryP":"video","categoryS":"hd___movies","magnet":"?xt=urn:btih:55b206aefc60c9b65a683ad4a89fa4380ef859bc&amp;dn=Aa+Gaye+Munde+U.K.+De+%282014%29+720p+Web-HD-Rip+-+Punjabi+-+x264+-+&amp;tr=udp%3A%2F%2Ftracker.openbittorrent.com%3A80&amp;tr=udp%3A%2F%2Fopen.demonii.com%3A1337&amp;tr=udp%3A%2F%2Ftracker.coppersurfer.tk%3A6969&amp;tr=udp%3A%2F%2Fexodus.desync.com%3A6969","seeders":15,"leechers":16,"uploader":"inovai","files":3,"time":1414765943,"description":"Aa Gaye Munde U.K. De (2014) 720p Web-HD-Rip - Punjabi - x264 - AC3 - 5.1 - ESubs - Mafiaking - Team TellyTNT ExClusive\n\nCover:\n &lt;a href=&quot;\nhttp://forum.primetimeshow.in/viewtopic.php?f=7&amp;t=802&quot; rel=&quot;nofollow&quot; target=&quot;_NEW&quot;&gt;\nhttp://forum.primetimeshow.in/viewtopic.php?f=7&amp;t=802&lt;/a&gt;\n\nScreenshots:\n &lt;a href=&quot;\nhttp://m.primetimeshow.in/share-0843_54538E1E.html&quot; rel=&quot;nofollow&quot; target=&quot;_NEW&quot;&gt;\nhttp://m.primetimeshow.in/share-0843_54538E1E.html&lt;/a&gt;\n &lt;a href=&quot;\nhttp://m.primetimeshow.in/share-6F32_54538E1E.html&quot; rel=&quot;nofollow&quot; target=&quot;_NEW&quot;&gt;\nhttp://m.primetimeshow.in/share-6F32_54538E1E.html&lt;/a&gt;\n &lt;a href=&quot;\nhttp://m.primetimeshow.in/share-7FFC_54538E1E.html&quot; rel=&quot;nofollow&quot; target=&quot;_NEW&quot;&gt;\nhttp://m.primetimeshow.in/share-7FFC_54538E1E.html&lt;/a&gt;\n &lt;a href=&quot;\nhttp://m.primetimeshow.in/share-F053_54538E1E.html&quot; rel=&quot;nofollow&quot; target=&quot;_NEW&quot;&gt;\nhttp://m.primetimeshow.in/share-F053_54538E1E.html&lt;/a&gt;\n &lt;a href=&quot;\nhttp://m.primetimeshow.in/share-9279_54538E1E.html&quot; rel=&quot;nofollow&quot; target=&quot;_NEW&quot;&gt;\nhttp://m.primetimeshow.in/share-9279_54538E1E.html&lt;/a&gt;\n\nGeneral\nUnique ID : 253749053897449687232169671173638796541 (0xBEE64A45B44BAAB38329469A3C5D34FD)\nComplete name : Aa Gaye Munde U.K. De (2014) 720p Web-HD-Rip - Punjabi - x264 - AC3 - 5.1 - ESubs - Mafiaking - Team TellyTNT ExClusive.mkv\nFormat : Matroska\nFormat version : Version 4 / Version 2\nFile size : 1.04 GiB\nDuration : 2h 12mn\nOverall bit rate : 1 127 Kbps\nMovie name : Aa Gaye Munde U.K. De (2014) 720p Web-HD-Rip - Punjabi - x264 - AC3 - 5.1 - ESubs - Mafiaking - Team TellyTNT ExClusive\nEncoded date : UTC 2014-10-30 17:18:54\nWriting application : mkvmerge v7.0.0 ('Where We Going') 64bit built on Jun 9 2014 15:16:27\nWriting library : libebml v1.3.0 + libmatroska v1.4.1\n\n\nVideo\nID : 1\nFormat : AVC\nFormat/Info : Advanced Video Codec\nFormat profile : &lt;a class=&quot;__cf_email__&quot; href=&quot;/cdn-cgi/l/email-protection&quot; data-cfemail=&quot;541c3d333c1418607a65&quot;&gt;[email&amp;#160;protected]&lt;/a&gt;&lt;script cf-hash='f9e31' type=&quot;text/javascript&quot;&gt;\n/* &lt;![CDATA[ */!function(){try{var t=&quot;currentScript&quot;in document?document.currentScript:function(){for(var t=document.getElementsByTagName(&quot;script&quot;),e=t.length;e--;)if(t[e].getAttribute(&quot;cf-hash&quot;))return t[e]}();if(t&amp;&amp;t.previousSibling){var e,r,n,i,c=t.previousSibling,a=c.getAttribute(&quot;data-cfemail&quot;);if(a){for(e=&quot;&quot;,r=parseInt(a.substr(0,2),16),n=2;a.length-n;n+=2)i=parseInt(a.substr(n,2),16)^r,e+=String.fromCharCode(i);e=document.createTextNode(e),c.parentNode.replaceChild(e,c)}}}catch(u){}}();/* ]]&gt; */&lt;/script&gt;\nFormat settings, CABAC : Yes\nFormat settings, ReFrames : 4 frames\nCodec ID : V_MPEG4/ISO/AVC\nDuration : 2h 12mn\nBit rate : 901 Kbps\nWidth : 1 280 pixels\nHeight : 544 pixels\nDisplay aspect ratio : 2.35:1\nFrame rate mode : Constant\nFrame rate : 24.000 fps\nColor space : YUV\nChroma subsampling : 4:2:0\nBit depth : 8 bits\nScan type : Progressive\nBits/(Pixel*Frame) : 0.054\nStream size : 834 MiB (78%)\nTitle : Mafiaking\nLanguage : Panjabi\nDefault : Yes\nForced : No\n\n\nAudio\nID : 2\nFormat : AC-3\nFormat/Info : Audio Coding 3\nMode extension : CM (complete main)\nFormat settings, Endianness : Big\nCodec ID : A_AC3\nDuration : 2h 12mn\nBit rate mode : Constant\nBit rate : 224 Kbps\nChannel(s) : 6 channels\nChannel positions : Front: L C R, Side: L R, LFE\nSampling rate : 48.0 KHz\nBit depth : 16 bits\nCompression mode : Lossy\nStream size : 212 MiB (20%)\nTitle : Mafiaking\nLanguage : Panjabi\nDefault : Yes\nForced : No\n\n\nText\nID : 3\nFormat : UTF-8\nCodec ID : S_TEXT/UTF8\nCodec ID/Info : UTF-8 Plain Text\nTitle : Mafiaking\nLanguage : English\nDefault : Yes\nForced : No\n\nSAMPLE WITH IN TORRENT!!\n\nSource Own @ Team TellyTNT..\n\nThanks to Mafiaking - Team TellyTNT!!\n\nSeed n Enjoy!!","torrent":{"xt":"urn:btih:55b206aefc60c9b65a683ad4a89fa4380ef859bc","amp;dn":"Aa+Gaye+Munde+U.K.+De+%282014%29+720p+Web-HD-Rip+-+Punjabi+-+x264+-+","amp;tr":["udp%3A%2F%2Ftracker.openbittorrent.com%3A80","udp%3A%2F%2Fopen.demonii.com%3A1337","udp%3A%2F%2Ftracker.coppersurfer.tk%3A6969","udp%3A%2F%2Fexodus.desync.com%3A6969"],"infoHash":"55b206aefc60c9b65a683ad4a89fa4380ef859bc","infoHashBuffer":{"type":"Buffer","data":[85,178,6,174,252,96,201,182,90,104,58,212,168,159,164,56,14,248,89,188]},"announce":[],"urlList":[]}}